<?xml version="1.0" encoding="utf-8"?>
<!-- Generator: Adobe Illustrator 13.0.0, SVG Export Plug-In . SVG Version: 6.00 Build 14948)  -->
<!DOCTYPE svg PUBLIC "-//W3C//DTD SVG 1.1//EN" "http://www.w3.org/Graphics/SVG/1.1/DTD/svg11.dtd">
<svg version="1.1" id="Layer_1" xmlns="http://www.w3.org/2000/svg" xmlns:xlink="http://www.w3.org/1999/xlink" x="0px" y="0px"
	 width="421.641px" height="70.176px" viewBox="0 0 421.641 70.176" enable-background="new 0 0 421.641 70.176"
	 xml:space="preserve">
<g>
	<path fill="#21262C" d="M42.237,34.146c0.646,0.67,0.623,1.746-0.05,2.4c-0.699,0.647-1.775,0.624-2.42-0.051
		c-0.194-0.176-0.31-0.396-0.382-0.648l-16.701-0.275c-0.346-0.008-0.14,0.041-2.057-0.367c1.002-0.38,1.372-0.433,1.717-0.425
		l17.089-0.156c0.081-0.193,0.206-0.384,0.381-0.528C40.483,33.448,41.562,33.467,42.237,34.146"/>
	<g>
		<path fill="#21262C" d="M38.165,38.413c-1.646-2.051-1.316-5.041,0.734-6.686c2.042-1.636,5.031-1.308,6.677,0.738
			c1.638,2.044,1.308,5.034-0.736,6.675C42.792,40.781,39.802,40.455,38.165,38.413"/>
	</g>
	<g>
		<path fill="#6F7071" d="M38.404,37.733c-1.402-1.753-1.092-4.332,0.696-5.769c1.788-1.433,4.374-1.177,5.777,0.574
			c1.404,1.749,1.092,4.329-0.696,5.763C42.39,39.736,39.803,39.475,38.404,37.733"/>
	</g>
	<g>
		<path fill="#6F7071" d="M38.702,36.989c-1.167-1.452-0.913-3.603,0.578-4.798c1.491-1.196,3.645-0.979,4.814,0.475
			c1.168,1.458,0.912,3.607-0.58,4.802C42.024,38.66,39.87,38.45,38.702,36.989"/>
	</g>
	<path fill="#424242" d="M39.118,36.157c-0.882-1.097-0.685-2.717,0.439-3.62c1.126-0.903,2.751-0.743,3.632,0.358
		c0.884,1.102,0.687,2.724-0.436,3.624C41.629,37.424,40.003,37.258,39.118,36.157"/>
	<path fill="#21262C" d="M40.05,34.628c-0.313-0.393-0.25-0.964,0.142-1.281c0.394-0.315,0.966-0.251,1.284,0.142
		c0.313,0.391,0.25,0.966-0.146,1.281C40.939,35.087,40.367,35.019,40.05,34.628"/>
	<path fill="#29BDBE" d="M22.08,35.175l3.961-2.712c0.49-7.182,2.948-13.81,6.869-19.355L0.514,35.175l32.543,22.084
		c-3.975-5.548-6.488-12.192-7.007-19.405L22.08,35.175z"/>
	<path fill="#21262C" d="M36.052,25.608l5.773-4.014l9.172,6.216l4.373-2.864l6.443-4.324l-6.443-4.365L41.824,7l-5.773,3.97
		l-3.139,2.138c-3.919,5.544-6.38,12.173-6.869,19.355L36.052,25.608z"/>
	<path fill="#21262C" d="M41.704,63.176l13.666-9.353l6.258-4.231l-6.258-4.274l-4.373-3.048c-2.979,2.076-6.076,4.146-9.173,6.264
		l-5.772-3.926L26.05,37.853c0.518,7.213,3.032,13.858,7.006,19.406l2.996,2.031L41.704,63.176z"/>
</g>
<g>
	<path d="M105.046,22.991v3.976c-2.474-2.547-5.403-3.823-8.793-3.823c-3.187,0-5.919,1.186-8.2,3.555
		c-2.28,2.371-3.421,5.161-3.421,8.372s1.146,6.003,3.441,8.372c2.294,2.37,5.047,3.556,8.258,3.556
		c3.261,0,6.167-1.273,8.716-3.822v3.976c-2.601,1.888-5.467,2.83-8.603,2.83c-4.076,0-7.602-1.445-10.569-4.34
		c-2.969-2.892-4.454-6.377-4.454-10.455c0-4.129,1.472-7.666,4.415-10.608s6.479-4.416,10.607-4.416
		C99.656,20.162,102.522,21.105,105.046,22.991z"/>
	<path d="M113.608,20.149v17.677c0,1.096,0.006,1.87,0.02,2.33c0.013,0.461,0.121,1.114,0.325,1.971
		c0.203,0.853,0.509,1.562,0.917,2.122c0.611,0.84,1.458,1.51,2.542,2.005C118.494,46.75,119.583,47,120.68,47
		c1.044,0,2.082-0.23,3.115-0.689c1.032-0.459,1.879-1.081,2.542-1.873c0.433-0.535,0.765-1.19,0.993-1.969
		c0.229-0.776,0.356-1.426,0.382-1.949c0.025-0.521,0.039-1.268,0.039-2.235c0-0.203,0-0.357,0-0.461V20.149h3.211v18.556
		c0,1.834-0.16,3.352-0.479,4.549c-0.318,1.198-1,2.346-2.045,3.439c-2.04,2.192-4.626,3.288-7.76,3.288
		c-2.958,0-5.442-0.979-7.456-2.942c-1.146-1.098-1.905-2.281-2.272-3.557c-0.37-1.273-0.556-2.868-0.556-4.777V20.149H113.608z"/>
	<path d="M144.306,23.13v26.84h-3.211V23.13h-6.958v-2.981h17.203v2.981H144.306z"/>
</g>
<g>
	<path fill="#29BDBE" d="M257.195,20.166v29.829h-5.517V20.166H257.195z"/>
	<path fill="#29BDBE" d="M284.589,49.995l-2.252-18.354h-0.074l-6.417,18.356h-1.915l-6.191-18.356h-0.075l-2.771,18.354h-5.16
		l4.628-29.837h3.903l6.979,18.65l6.681-18.65h3.978l3.823,29.837H284.589z"/>
	<path fill="#29BDBE" d="M308.195,43.238h-9.833l-2.326,6.732h-5.816l11.033-29.812h4.277l10.733,29.812h-5.894L308.195,43.238z
		 M306.656,38.734l-3.527-10.28h-0.075l-3.114,10.28H306.656z"/>
	<path fill="#29BDBE" d="M330.748,34.156h12.195v0.714c0,2.052-0.263,3.966-0.787,5.74c-0.524,1.777-1.302,3.372-2.327,4.786
		c-1.025,1.413-2.377,2.526-4.054,3.339c-1.676,0.813-3.576,1.22-5.704,1.22c-2.65,0-5.021-0.692-7.11-2.082
		c-2.09-1.391-3.673-3.194-4.748-5.423c-1.076-2.228-1.612-4.653-1.612-7.28c0-4.178,1.276-7.725,3.827-10.64
		c2.553-2.913,5.879-4.371,9.981-4.371c2.428,0,4.629,0.589,6.606,1.765c1.977,1.176,3.501,2.839,4.578,4.991l-4.879,2.626
		c-0.575-1.326-1.438-2.408-2.59-3.245c-1.15-0.839-2.438-1.258-3.865-1.258c-2.477,0-4.422,1.039-5.836,3.114
		c-1.413,2.077-2.12,4.417-2.12,7.019c0,1.627,0.287,3.178,0.864,4.652c0.574,1.478,1.486,2.721,2.738,3.733
		c1.25,1.014,2.715,1.521,4.391,1.521c1.701,0,3.189-0.637,4.467-1.913c1.275-1.276,1.938-2.776,1.989-4.503h-6.005V34.156
		L330.748,34.156z"/>
	<path fill="#29BDBE" d="M360.321,24.97h-9.12v6.972h8.782v4.804H351.2v8.422h9.12v4.803h-14.638V20.166h14.638V24.97z"/>
</g>
<g>
	<path fill="#29BDBE" d="M168.391,24.617c2.94-2.913,6.472-4.371,10.594-4.371c4.124,0,7.656,1.458,10.596,4.371
		c2.937,2.916,4.406,6.433,4.406,10.557c0,4.122-1.47,7.628-4.406,10.518c-2.938,2.89-6.472,4.334-10.596,4.334
		c-4.122,0-7.653-1.444-10.594-4.334c-2.938-2.888-4.41-6.396-4.41-10.518C163.982,31.05,165.452,27.533,168.391,24.617z
		 M187.346,26.717c-2.29-2.329-5.076-3.494-8.361-3.494c-3.282,0-6.068,1.165-8.359,3.494c-2.29,2.329-3.437,5.135-3.437,8.418
		c0,3.258,1.151,6.059,3.455,8.399c2.304,2.342,5.084,3.514,8.341,3.514c3.261,0,6.039-1.172,8.344-3.514
		c2.302-2.34,3.452-5.142,3.452-8.399C190.781,31.853,189.636,29.046,187.346,26.717z"/>
	<path fill="#29BDBE" d="M201.47,20.186v17.698c0,1.095,0.006,1.871,0.018,2.329c0.014,0.459,0.12,1.112,0.325,1.967
		c0.203,0.851,0.509,1.559,0.917,2.118c0.609,0.84,1.456,1.508,2.538,2.005c1.082,0.496,2.17,0.744,3.265,0.744
		c1.043,0,2.08-0.229,3.11-0.688c1.032-0.458,1.877-1.081,2.54-1.87c0.433-0.533,0.763-1.189,0.993-1.967
		c0.229-0.773,0.354-1.425,0.381-1.945c0.026-0.521,0.039-1.266,0.039-2.233c0-0.204,0-0.356,0-0.458V20.186h3.206v18.576
		c0,1.833-0.158,3.349-0.477,4.545c-0.319,1.196-0.999,2.341-2.042,3.437c-2.036,2.188-4.621,3.282-7.752,3.282
		c-2.951,0-5.435-0.979-7.443-2.939c-1.146-1.095-1.903-2.276-2.271-3.551c-0.369-1.273-0.554-2.862-0.554-4.772V20.186H201.47z"/>
	<path fill="#29BDBE" d="M232.125,23.163v26.806h-3.206V23.163h-6.949v-2.978h17.18v2.978H232.125z"/>
</g>
</svg>
